G04 EAGLE Gerber RS-274X export*
G75*
%MOMM*%
%FSLAX34Y34*%
%LPD*%
%INBottom Copper*%
%IPPOS*%
%AMOC8*
5,1,8,0,0,1.08239X$1,22.5*%
G01*
%ADD10C,1.790700*%
%ADD11P,1.732040X8X112.500000*%
%ADD12P,1.429621X8X22.500000*%
%ADD13C,1.320800*%
%ADD14C,1.320800*%
%ADD15C,1.800000*%
%ADD16C,1.524000*%
%ADD17C,1.117600*%
%ADD18P,1.429621X8X202.500000*%
%ADD19C,1.508000*%
%ADD20P,1.649562X8X202.500000*%
%ADD21R,1.930400X1.930400*%
%ADD22C,1.930400*%
%ADD23C,0.152400*%
%ADD24C,0.756400*%


D10*
X1438847Y571100D02*
X1456754Y571100D01*
X1456754Y521100D02*
X1438847Y521100D01*
D11*
X736600Y368300D03*
X736600Y419100D03*
X914400Y368300D03*
X914400Y419100D03*
D12*
X1140460Y241300D03*
D13*
X1120140Y241300D03*
D12*
X1229360Y609600D03*
D13*
X1209040Y609600D03*
D14*
X698500Y501904D02*
X698500Y488696D01*
X723900Y488696D02*
X723900Y501904D01*
X749300Y501904D02*
X749300Y488696D01*
X774700Y488696D02*
X774700Y501904D01*
X800100Y501904D02*
X800100Y488696D01*
X825500Y488696D02*
X825500Y501904D01*
X850900Y501904D02*
X850900Y488696D01*
X876300Y488696D02*
X876300Y501904D01*
X901700Y501904D02*
X901700Y488696D01*
X927100Y488696D02*
X927100Y501904D01*
X952500Y501904D02*
X952500Y488696D01*
X977900Y488696D02*
X977900Y501904D01*
X1003300Y501904D02*
X1003300Y488696D01*
X1028700Y488696D02*
X1028700Y501904D01*
X1028700Y564896D02*
X1028700Y578104D01*
X1003300Y578104D02*
X1003300Y564896D01*
X977900Y564896D02*
X977900Y578104D01*
X952500Y578104D02*
X952500Y564896D01*
X927100Y564896D02*
X927100Y578104D01*
X901700Y578104D02*
X901700Y564896D01*
X876300Y564896D02*
X876300Y578104D01*
X850900Y578104D02*
X850900Y564896D01*
X825500Y564896D02*
X825500Y578104D01*
X800100Y578104D02*
X800100Y564896D01*
X774700Y564896D02*
X774700Y578104D01*
X749300Y578104D02*
X749300Y564896D01*
X723900Y564896D02*
X723900Y578104D01*
X698500Y578104D02*
X698500Y564896D01*
D15*
X1235600Y800100D02*
X1253600Y800100D01*
X1286400Y812800D02*
X1304400Y812800D01*
X1253600Y825500D02*
X1235600Y825500D01*
X1286400Y838200D02*
X1304400Y838200D01*
X1253600Y850900D02*
X1235600Y850900D01*
X1286400Y863600D02*
X1304400Y863600D01*
X1304400Y787400D02*
X1286400Y787400D01*
X1253600Y774700D02*
X1235600Y774700D01*
X1286400Y762000D02*
X1304400Y762000D01*
X1253600Y749300D02*
X1235600Y749300D01*
X1286400Y736600D02*
X1304400Y736600D01*
X1253600Y876300D02*
X1235600Y876300D01*
X1286400Y889000D02*
X1304400Y889000D01*
X1253600Y723900D02*
X1235600Y723900D01*
X1286400Y711200D02*
X1304400Y711200D01*
X1253600Y292100D02*
X1235600Y292100D01*
X1286400Y304800D02*
X1304400Y304800D01*
X1253600Y317500D02*
X1235600Y317500D01*
X1286400Y330200D02*
X1304400Y330200D01*
X1253600Y342900D02*
X1235600Y342900D01*
X1286400Y355600D02*
X1304400Y355600D01*
X1304400Y279400D02*
X1286400Y279400D01*
X1253600Y266700D02*
X1235600Y266700D01*
X1286400Y254000D02*
X1304400Y254000D01*
X1253600Y241300D02*
X1235600Y241300D01*
X1286400Y228600D02*
X1304400Y228600D01*
X1253600Y368300D02*
X1235600Y368300D01*
X1286400Y381000D02*
X1304400Y381000D01*
X1253600Y215900D02*
X1235600Y215900D01*
X1286400Y203200D02*
X1304400Y203200D01*
D16*
X1206500Y652780D02*
X1206500Y668020D01*
X1231900Y668020D02*
X1231900Y652780D01*
X1257300Y652780D02*
X1257300Y668020D01*
X1282700Y668020D02*
X1282700Y652780D01*
D17*
X850900Y411988D02*
X850900Y400812D01*
X800100Y400812D02*
X800100Y411988D01*
D12*
X990600Y622300D03*
X1092200Y622300D03*
X749300Y736600D03*
X850900Y736600D03*
X622300Y736600D03*
X723900Y736600D03*
X1003300Y787400D03*
X1104900Y787400D03*
X876300Y787400D03*
X977900Y787400D03*
X749300Y787400D03*
X850900Y787400D03*
X622300Y787400D03*
X723900Y787400D03*
X863600Y622300D03*
X965200Y622300D03*
X736600Y622300D03*
X838200Y622300D03*
D18*
X774700Y330200D03*
X673100Y330200D03*
X901700Y330200D03*
X800100Y330200D03*
X1028700Y330200D03*
X927100Y330200D03*
X1155700Y330200D03*
X1054100Y330200D03*
D12*
X1003300Y736600D03*
X1104900Y736600D03*
X876300Y736600D03*
X977900Y736600D03*
D19*
X1433160Y454300D02*
X1448240Y454300D01*
X1498160Y454300D02*
X1513240Y454300D01*
X1448240Y409300D02*
X1433160Y409300D01*
X1498160Y409300D02*
X1513240Y409300D01*
D20*
X1536700Y660400D03*
X1511300Y660400D03*
X1485900Y660400D03*
X1460500Y660400D03*
X1435100Y660400D03*
X1536700Y635000D03*
X1511300Y635000D03*
X1485900Y635000D03*
X1460500Y635000D03*
X1435100Y635000D03*
D21*
X1337310Y436880D03*
D22*
X1360170Y436880D03*
D21*
X1383030Y436880D03*
D14*
X1092200Y488696D02*
X1092200Y501904D01*
X1117600Y501904D02*
X1117600Y488696D01*
X1244600Y488696D02*
X1244600Y501904D01*
X1244600Y564896D02*
X1244600Y578104D01*
X1143000Y501904D02*
X1143000Y488696D01*
X1168400Y488696D02*
X1168400Y501904D01*
X1219200Y501904D02*
X1219200Y488696D01*
X1193800Y488696D02*
X1193800Y501904D01*
X1219200Y564896D02*
X1219200Y578104D01*
X1193800Y578104D02*
X1193800Y564896D01*
X1168400Y564896D02*
X1168400Y578104D01*
X1143000Y578104D02*
X1143000Y564896D01*
X1117600Y564896D02*
X1117600Y578104D01*
X1092200Y578104D02*
X1092200Y564896D01*
D10*
X1362647Y761600D02*
X1380554Y761600D01*
X1380554Y711600D02*
X1362647Y711600D01*
X1375347Y202800D02*
X1393254Y202800D01*
X1393254Y152800D02*
X1375347Y152800D01*
X1375347Y355200D02*
X1393254Y355200D01*
X1393254Y305200D02*
X1375347Y305200D01*
X1380554Y901300D02*
X1362647Y901300D01*
X1362647Y851300D02*
X1380554Y851300D01*
D16*
X762000Y261620D02*
X762000Y246380D01*
X787400Y246380D02*
X787400Y261620D01*
X812800Y261620D02*
X812800Y246380D01*
X838200Y246380D02*
X838200Y261620D01*
D23*
X1223772Y728472D02*
X1244600Y749300D01*
X1223772Y728472D02*
X1223772Y716280D01*
X1272540Y667512D01*
X1272540Y501396D01*
X1336548Y437388D01*
X1337310Y436880D01*
X1336548Y435864D01*
X1347216Y242316D02*
X1245108Y242316D01*
X1347216Y242316D02*
X1405128Y300228D01*
X1405128Y368808D01*
X1338072Y435864D01*
X1245108Y242316D02*
X1244600Y241300D01*
X1338072Y435864D02*
X1337310Y436880D01*
X1208532Y609600D02*
X1208532Y658368D01*
X1206500Y660400D01*
X1208532Y609600D02*
X1209040Y609600D01*
X1525524Y633984D02*
X1536192Y633984D01*
X1525524Y633984D02*
X1475232Y583692D01*
X1434084Y583692D01*
X1383792Y533400D01*
X1383792Y437388D01*
X1536192Y633984D02*
X1536700Y635000D01*
X1383792Y437388D02*
X1383030Y436880D01*
X1139952Y242316D02*
X1132332Y242316D01*
X1121664Y252984D01*
X838200Y252984D01*
X1139952Y242316D02*
X1140460Y241300D01*
X838200Y252984D02*
X838200Y254000D01*
X1229868Y609600D02*
X1229868Y658368D01*
X1231900Y660400D01*
X1229868Y609600D02*
X1229360Y609600D01*
X1440180Y502920D02*
X1440180Y455676D01*
X1440180Y502920D02*
X1426464Y516636D01*
X1426464Y548640D01*
X1447800Y569976D01*
X1440180Y455676D02*
X1440700Y454300D01*
X1447800Y569976D02*
X1447800Y571100D01*
X850392Y571500D02*
X850392Y554736D01*
X827532Y531876D01*
X827532Y525780D01*
X841248Y512064D01*
X859536Y512064D01*
X876300Y495300D01*
X850900Y571500D02*
X850392Y571500D01*
X867156Y736092D02*
X876300Y736092D01*
X867156Y736092D02*
X858012Y726948D01*
X758952Y726948D01*
X749300Y736600D01*
X876300Y736600D02*
X876300Y736092D01*
X990600Y787908D02*
X1002792Y787908D01*
X990600Y787908D02*
X981456Y797052D01*
X758952Y797052D01*
X749300Y787400D01*
X1002792Y787908D02*
X1003300Y787400D01*
X914400Y368300D02*
X914400Y329184D01*
X905256Y320040D01*
X899160Y320040D01*
X876300Y342900D01*
X876300Y495300D01*
X1505712Y432816D02*
X1505712Y409956D01*
X1505712Y432816D02*
X1546860Y473964D01*
X1546860Y640080D01*
X1537716Y649224D01*
X1496568Y649224D01*
X1485900Y659892D01*
X1505712Y409956D02*
X1505700Y409300D01*
X1485900Y659892D02*
X1485900Y660400D01*
X876300Y571500D02*
X833628Y528828D01*
X993648Y688848D02*
X993648Y768096D01*
X993648Y688848D02*
X876300Y571500D01*
X1485900Y660400D02*
X1485900Y723900D01*
X1129284Y900684D02*
X1005840Y777240D01*
X987552Y777240D01*
X978408Y786384D01*
X977900Y787400D01*
D24*
X833628Y528828D03*
X993648Y768096D03*
D23*
X1473708Y723900D02*
X1485900Y723900D01*
X1473708Y723900D02*
X1316736Y880872D01*
X1316736Y893064D01*
X1309116Y900684D01*
X1129284Y900684D01*
X780288Y571500D02*
X774700Y571500D01*
X780288Y571500D02*
X821436Y612648D01*
X877824Y612648D01*
X976884Y711708D01*
X976884Y736092D01*
X977900Y736600D01*
X934212Y280416D02*
X1257300Y280416D01*
X934212Y280416D02*
X809244Y405384D01*
X809244Y542544D01*
X780288Y571500D01*
X775716Y571500D02*
X774700Y571500D01*
X1281684Y204216D02*
X1295400Y204216D01*
X1281684Y204216D02*
X1257300Y228600D01*
X1231392Y228600D01*
X1223772Y236220D01*
X1223772Y246888D01*
X1231392Y254508D01*
X1258824Y254508D01*
X1264920Y260604D01*
X1264920Y272796D01*
X1257300Y280416D01*
X1295400Y204216D02*
X1295400Y203200D01*
X850392Y737616D02*
X772668Y737616D01*
X723900Y786384D01*
X850392Y737616D02*
X850900Y736600D01*
X723900Y786384D02*
X723900Y787400D01*
X1295400Y609600D02*
X1295400Y541020D01*
X1295400Y609600D02*
X1395984Y710184D01*
X1395984Y789432D01*
X864108Y737616D02*
X851916Y737616D01*
X864108Y737616D02*
X900684Y774192D01*
X1051560Y774192D01*
X1165860Y888492D01*
X851916Y737616D02*
X850900Y736600D01*
D24*
X1295400Y541020D03*
D23*
X1295400Y888492D02*
X1165860Y888492D01*
X1295400Y888492D02*
X1307592Y876300D01*
X1309116Y876300D01*
X1395984Y789432D01*
X1295400Y888492D02*
X1295400Y889000D01*
X826008Y623316D02*
X765048Y623316D01*
X737616Y623316D01*
X826008Y623316D02*
X835152Y632460D01*
X853440Y632460D01*
X863600Y622300D01*
X737616Y623316D02*
X736600Y622300D01*
X774192Y409956D02*
X774192Y330708D01*
X774192Y409956D02*
X765048Y419100D01*
X765048Y623316D01*
X774192Y330708D02*
X774700Y330200D01*
X1193292Y838200D02*
X1257300Y838200D01*
X1193292Y838200D02*
X990600Y635508D01*
X990600Y622300D01*
X1245108Y800100D02*
X1264920Y819912D01*
X1264920Y830580D01*
X1257300Y838200D01*
X1245108Y800100D02*
X1244600Y800100D01*
X1243584Y850392D02*
X1193292Y850392D01*
X965200Y622300D01*
X1243584Y850392D02*
X1244600Y850900D01*
X958596Y495300D02*
X952500Y495300D01*
X958596Y495300D02*
X1018032Y554736D01*
X1031748Y554736D01*
X1091184Y614172D01*
X1091184Y621792D01*
X1092200Y622300D01*
X1213104Y571500D02*
X1219200Y571500D01*
X1213104Y571500D02*
X1170432Y614172D01*
X1091184Y614172D01*
X1170432Y751332D02*
X1244600Y825500D01*
X1170432Y751332D02*
X1170432Y614172D01*
X1219200Y551688D02*
X1219200Y495300D01*
X1219200Y551688D02*
X1228344Y560832D01*
X1228344Y597408D01*
X1219200Y606552D01*
X1219200Y711708D01*
X1217676Y713232D01*
X1217676Y774192D01*
X1229868Y786384D01*
X1295400Y786384D01*
X1295400Y787400D01*
X1002792Y736092D02*
X1002792Y691896D01*
X891540Y580644D01*
X891540Y339852D01*
X900684Y330708D01*
X1002792Y736092D02*
X1003300Y736600D01*
X900684Y330708D02*
X901700Y330200D01*
X1066800Y330708D02*
X1155192Y330708D01*
X1066800Y330708D02*
X1057656Y339852D01*
X1037844Y339852D01*
X1028700Y330708D01*
X1155192Y330708D02*
X1155700Y330200D01*
X1028700Y330200D02*
X1028700Y330708D01*
X982980Y495300D02*
X977900Y495300D01*
X982980Y495300D02*
X999744Y512064D01*
X1074420Y512064D01*
X1091184Y495300D01*
X1092200Y495300D01*
X1104900Y717804D02*
X1104900Y736600D01*
X1104900Y717804D02*
X961644Y574548D01*
X961644Y524256D01*
X943356Y505968D01*
X943356Y484632D01*
X949452Y478536D01*
X960120Y478536D01*
X976884Y495300D01*
X977900Y495300D01*
X1178052Y490728D02*
X1264920Y403860D01*
X1178052Y490728D02*
X1178052Y505968D01*
X1171956Y512064D01*
X1109472Y512064D01*
X1092708Y495300D01*
X1092200Y495300D01*
X1283208Y266700D02*
X1295400Y254508D01*
X1283208Y266700D02*
X1281684Y266700D01*
X1264920Y283464D01*
X1264920Y403860D01*
X1295400Y254508D02*
X1295400Y254000D01*
X1002792Y330708D02*
X928116Y330708D01*
X1129284Y457200D02*
X1167384Y495300D01*
X1129284Y457200D02*
X1002792Y330708D01*
X928116Y330708D02*
X927100Y330200D01*
X1167384Y495300D02*
X1168400Y495300D01*
X1129284Y457200D02*
X1243584Y342900D01*
X1244600Y342900D01*
X1345692Y760476D02*
X1371600Y760476D01*
X1345692Y760476D02*
X1309116Y723900D01*
X1244600Y723900D01*
X1371600Y760476D02*
X1371600Y761600D01*
X1383792Y306324D02*
X1345692Y306324D01*
X1295400Y356616D01*
X1383792Y306324D02*
X1384300Y305200D01*
X1295400Y355600D02*
X1295400Y356616D01*
X775716Y413004D02*
X775716Y495300D01*
X775716Y413004D02*
X922020Y266700D01*
X775716Y495300D02*
X774700Y495300D01*
X922020Y266700D02*
X1244600Y266700D01*
X1121664Y528828D02*
X1117092Y528828D01*
X1121664Y528828D02*
X1132332Y539496D01*
X1188720Y539496D01*
X1210056Y518160D01*
X1210056Y478536D01*
X1274064Y414528D01*
X1274064Y350520D01*
X1295400Y329184D01*
X1295400Y330200D01*
D24*
X1117092Y528828D03*
D23*
X1257300Y660400D02*
X1257300Y678180D01*
X1220724Y714756D01*
X1220724Y751332D01*
X1243584Y774192D01*
X1244600Y774700D01*
X1283208Y661416D02*
X1290828Y661416D01*
X1379220Y749808D01*
X1385316Y749808D01*
X1392936Y757428D01*
X1392936Y766572D01*
X1283208Y661416D02*
X1282700Y660400D01*
X748284Y501396D02*
X748284Y495300D01*
X748284Y501396D02*
X688848Y560832D01*
X688848Y701040D01*
X723900Y736092D01*
X748284Y495300D02*
X749300Y495300D01*
X723900Y736092D02*
X723900Y736600D01*
X1295400Y838200D02*
X1321308Y838200D01*
X1392936Y766572D01*
X699516Y598932D02*
X699516Y571500D01*
X699516Y598932D02*
X736092Y635508D01*
X864108Y635508D01*
X877824Y621792D01*
X699516Y571500D02*
X698500Y571500D01*
X1459992Y649224D02*
X1459992Y659892D01*
X1459992Y649224D02*
X1446276Y635508D01*
X1446276Y630936D01*
X1368552Y553212D01*
X1459992Y659892D02*
X1460500Y660400D01*
D24*
X877824Y621792D03*
X1368552Y553212D03*
D23*
X723900Y541020D02*
X723900Y571500D01*
X723900Y541020D02*
X762000Y502920D01*
X762000Y278892D01*
X786384Y254508D01*
X787400Y254000D01*
M02*
