G04 EAGLE Gerber RS-274X export*
G75*
%MOMM*%
%FSLAX34Y34*%
%LPD*%
%INTop Copper*%
%IPPOS*%
%AMOC8*
5,1,8,0,0,1.08239X$1,22.5*%
G01*
%ADD10C,1.790700*%
%ADD11P,1.732040X8X112.500000*%
%ADD12P,1.429621X8X22.500000*%
%ADD13C,1.320800*%
%ADD14C,1.320800*%
%ADD15C,1.800000*%
%ADD16C,1.524000*%
%ADD17C,1.117600*%
%ADD18P,1.429621X8X202.500000*%
%ADD19C,1.508000*%
%ADD20P,1.649562X8X202.500000*%
%ADD21R,1.930400X1.930400*%
%ADD22C,1.930400*%
%ADD23C,0.152400*%
%ADD24C,0.756400*%


D10*
X1438847Y571100D02*
X1456754Y571100D01*
X1456754Y521100D02*
X1438847Y521100D01*
D11*
X736600Y368300D03*
X736600Y419100D03*
X914400Y368300D03*
X914400Y419100D03*
D12*
X1140460Y241300D03*
D13*
X1120140Y241300D03*
D12*
X1229360Y609600D03*
D13*
X1209040Y609600D03*
D14*
X698500Y501904D02*
X698500Y488696D01*
X723900Y488696D02*
X723900Y501904D01*
X749300Y501904D02*
X749300Y488696D01*
X774700Y488696D02*
X774700Y501904D01*
X800100Y501904D02*
X800100Y488696D01*
X825500Y488696D02*
X825500Y501904D01*
X850900Y501904D02*
X850900Y488696D01*
X876300Y488696D02*
X876300Y501904D01*
X901700Y501904D02*
X901700Y488696D01*
X927100Y488696D02*
X927100Y501904D01*
X952500Y501904D02*
X952500Y488696D01*
X977900Y488696D02*
X977900Y501904D01*
X1003300Y501904D02*
X1003300Y488696D01*
X1028700Y488696D02*
X1028700Y501904D01*
X1028700Y564896D02*
X1028700Y578104D01*
X1003300Y578104D02*
X1003300Y564896D01*
X977900Y564896D02*
X977900Y578104D01*
X952500Y578104D02*
X952500Y564896D01*
X927100Y564896D02*
X927100Y578104D01*
X901700Y578104D02*
X901700Y564896D01*
X876300Y564896D02*
X876300Y578104D01*
X850900Y578104D02*
X850900Y564896D01*
X825500Y564896D02*
X825500Y578104D01*
X800100Y578104D02*
X800100Y564896D01*
X774700Y564896D02*
X774700Y578104D01*
X749300Y578104D02*
X749300Y564896D01*
X723900Y564896D02*
X723900Y578104D01*
X698500Y578104D02*
X698500Y564896D01*
D15*
X1235600Y800100D02*
X1253600Y800100D01*
X1286400Y812800D02*
X1304400Y812800D01*
X1253600Y825500D02*
X1235600Y825500D01*
X1286400Y838200D02*
X1304400Y838200D01*
X1253600Y850900D02*
X1235600Y850900D01*
X1286400Y863600D02*
X1304400Y863600D01*
X1304400Y787400D02*
X1286400Y787400D01*
X1253600Y774700D02*
X1235600Y774700D01*
X1286400Y762000D02*
X1304400Y762000D01*
X1253600Y749300D02*
X1235600Y749300D01*
X1286400Y736600D02*
X1304400Y736600D01*
X1253600Y876300D02*
X1235600Y876300D01*
X1286400Y889000D02*
X1304400Y889000D01*
X1253600Y723900D02*
X1235600Y723900D01*
X1286400Y711200D02*
X1304400Y711200D01*
X1253600Y292100D02*
X1235600Y292100D01*
X1286400Y304800D02*
X1304400Y304800D01*
X1253600Y317500D02*
X1235600Y317500D01*
X1286400Y330200D02*
X1304400Y330200D01*
X1253600Y342900D02*
X1235600Y342900D01*
X1286400Y355600D02*
X1304400Y355600D01*
X1304400Y279400D02*
X1286400Y279400D01*
X1253600Y266700D02*
X1235600Y266700D01*
X1286400Y254000D02*
X1304400Y254000D01*
X1253600Y241300D02*
X1235600Y241300D01*
X1286400Y228600D02*
X1304400Y228600D01*
X1253600Y368300D02*
X1235600Y368300D01*
X1286400Y381000D02*
X1304400Y381000D01*
X1253600Y215900D02*
X1235600Y215900D01*
X1286400Y203200D02*
X1304400Y203200D01*
D16*
X1206500Y652780D02*
X1206500Y668020D01*
X1231900Y668020D02*
X1231900Y652780D01*
X1257300Y652780D02*
X1257300Y668020D01*
X1282700Y668020D02*
X1282700Y652780D01*
D17*
X850900Y411988D02*
X850900Y400812D01*
X800100Y400812D02*
X800100Y411988D01*
D12*
X990600Y622300D03*
X1092200Y622300D03*
X749300Y736600D03*
X850900Y736600D03*
X622300Y736600D03*
X723900Y736600D03*
X1003300Y787400D03*
X1104900Y787400D03*
X876300Y787400D03*
X977900Y787400D03*
X749300Y787400D03*
X850900Y787400D03*
X622300Y787400D03*
X723900Y787400D03*
X863600Y622300D03*
X965200Y622300D03*
X736600Y622300D03*
X838200Y622300D03*
D18*
X774700Y330200D03*
X673100Y330200D03*
X901700Y330200D03*
X800100Y330200D03*
X1028700Y330200D03*
X927100Y330200D03*
X1155700Y330200D03*
X1054100Y330200D03*
D12*
X1003300Y736600D03*
X1104900Y736600D03*
X876300Y736600D03*
X977900Y736600D03*
D19*
X1433160Y454300D02*
X1448240Y454300D01*
X1498160Y454300D02*
X1513240Y454300D01*
X1448240Y409300D02*
X1433160Y409300D01*
X1498160Y409300D02*
X1513240Y409300D01*
D20*
X1536700Y660400D03*
X1511300Y660400D03*
X1485900Y660400D03*
X1460500Y660400D03*
X1435100Y660400D03*
X1536700Y635000D03*
X1511300Y635000D03*
X1485900Y635000D03*
X1460500Y635000D03*
X1435100Y635000D03*
D21*
X1337310Y436880D03*
D22*
X1360170Y436880D03*
D21*
X1383030Y436880D03*
D14*
X1092200Y488696D02*
X1092200Y501904D01*
X1117600Y501904D02*
X1117600Y488696D01*
X1244600Y488696D02*
X1244600Y501904D01*
X1244600Y564896D02*
X1244600Y578104D01*
X1143000Y501904D02*
X1143000Y488696D01*
X1168400Y488696D02*
X1168400Y501904D01*
X1219200Y501904D02*
X1219200Y488696D01*
X1193800Y488696D02*
X1193800Y501904D01*
X1219200Y564896D02*
X1219200Y578104D01*
X1193800Y578104D02*
X1193800Y564896D01*
X1168400Y564896D02*
X1168400Y578104D01*
X1143000Y578104D02*
X1143000Y564896D01*
X1117600Y564896D02*
X1117600Y578104D01*
X1092200Y578104D02*
X1092200Y564896D01*
D10*
X1362647Y761600D02*
X1380554Y761600D01*
X1380554Y711600D02*
X1362647Y711600D01*
X1375347Y202800D02*
X1393254Y202800D01*
X1393254Y152800D02*
X1375347Y152800D01*
X1375347Y355200D02*
X1393254Y355200D01*
X1393254Y305200D02*
X1375347Y305200D01*
X1380554Y901300D02*
X1362647Y901300D01*
X1362647Y851300D02*
X1380554Y851300D01*
D16*
X762000Y261620D02*
X762000Y246380D01*
X787400Y246380D02*
X787400Y261620D01*
X812800Y261620D02*
X812800Y246380D01*
X838200Y246380D02*
X838200Y261620D01*
D23*
X1120140Y242316D02*
X1127760Y242316D01*
X1136904Y251460D01*
X1120140Y242316D02*
X1120140Y241300D01*
X1420368Y519684D02*
X1447800Y519684D01*
X1420368Y519684D02*
X1338072Y437388D01*
X1447800Y519684D02*
X1447800Y521100D01*
X1338072Y437388D02*
X1337310Y436880D01*
X1234440Y251460D02*
X1136904Y251460D01*
X1234440Y251460D02*
X1244600Y241300D01*
X850392Y495300D02*
X850392Y522732D01*
X812292Y560832D01*
X812292Y684276D01*
X861060Y733044D01*
X861060Y763524D01*
X841248Y783336D01*
X841248Y790956D01*
X847344Y797052D01*
X867156Y797052D01*
X876300Y787908D01*
X850900Y495300D02*
X850392Y495300D01*
X876300Y787400D02*
X876300Y787908D01*
X1274064Y762000D02*
X1274064Y731520D01*
X1274064Y762000D02*
X1274064Y792480D01*
X1274064Y731520D02*
X1281684Y723900D01*
X1309116Y723900D01*
X1316736Y716280D01*
X1316736Y707136D01*
X1287780Y678180D01*
X1252728Y678180D01*
X1242060Y667512D01*
X1242060Y647700D01*
X1235964Y641604D01*
X1225296Y641604D01*
X1206500Y660400D01*
X1383792Y435864D02*
X1405128Y414528D01*
X1383792Y435864D02*
X1383030Y436880D01*
X1216152Y609600D02*
X1209040Y609600D01*
X1216152Y609600D02*
X1237488Y588264D01*
X1333500Y588264D01*
X1362456Y559308D01*
X1461516Y559308D01*
X1536192Y633984D01*
X1536700Y635000D01*
X966216Y786384D02*
X876300Y786384D01*
X966216Y786384D02*
X990600Y762000D01*
X1274064Y762000D01*
X876300Y786384D02*
X876300Y787400D01*
X1283208Y800100D02*
X1295400Y812292D01*
X1283208Y800100D02*
X1281684Y800100D01*
X1274064Y792480D01*
X1295400Y812292D02*
X1295400Y812800D01*
X1295400Y304800D02*
X1357884Y304800D01*
X1395984Y342900D01*
X1397508Y342900D01*
X1405128Y350520D01*
X1405128Y414528D01*
X737616Y367284D02*
X737616Y353568D01*
X818388Y272796D02*
X838200Y252984D01*
X818388Y272796D02*
X737616Y353568D01*
X737616Y367284D02*
X736600Y368300D01*
X838200Y254000D02*
X838200Y252984D01*
X819912Y272796D02*
X914400Y367284D01*
X819912Y272796D02*
X818388Y272796D01*
X914400Y367284D02*
X914400Y368300D01*
X1377696Y454152D02*
X1440180Y454152D01*
X1377696Y454152D02*
X1360932Y437388D01*
X1440180Y454152D02*
X1440700Y454300D01*
X1360932Y437388D02*
X1360170Y436880D01*
X1447800Y635508D02*
X1459992Y635508D01*
X1447800Y635508D02*
X1435608Y635508D01*
X1435100Y635000D01*
X1459992Y635508D02*
X1460500Y635000D01*
X1461516Y635508D02*
X1485900Y635508D01*
X1461516Y635508D02*
X1460500Y635000D01*
X1485900Y635508D02*
X1510284Y635508D01*
X1511300Y635000D01*
X1485900Y635000D02*
X1485900Y635508D01*
X1447800Y635508D02*
X1447800Y571100D01*
X1338072Y609600D02*
X1229360Y609600D01*
X1338072Y609600D02*
X1351788Y623316D01*
X1423416Y623316D01*
X1435100Y635000D01*
X623316Y762000D02*
X623316Y786384D01*
X623316Y762000D02*
X623316Y737616D01*
X622300Y736600D01*
X623316Y786384D02*
X622300Y787400D01*
X749808Y786384D02*
X749808Y762000D01*
X749808Y737616D01*
X749300Y736600D01*
X749808Y786384D02*
X749300Y787400D01*
X749808Y762000D02*
X623316Y762000D01*
X851916Y711708D02*
X851916Y678180D01*
X851916Y571500D01*
X851916Y711708D02*
X876300Y736092D01*
X851916Y571500D02*
X850900Y571500D01*
X876300Y736092D02*
X876300Y736600D01*
X1228344Y661416D02*
X1231392Y661416D01*
X1228344Y661416D02*
X1211580Y678180D01*
X851916Y678180D01*
X1231392Y661416D02*
X1231900Y660400D01*
X704088Y495300D02*
X698500Y495300D01*
X704088Y495300D02*
X720852Y478536D01*
X752856Y478536D01*
X765048Y490728D01*
X765048Y505968D01*
X787908Y528828D01*
X833628Y528828D01*
X876300Y571500D02*
X901700Y571500D01*
X978408Y783336D02*
X978408Y786384D01*
X978408Y783336D02*
X993648Y768096D01*
X978408Y786384D02*
X977900Y787400D01*
D24*
X833628Y528828D03*
X993648Y768096D03*
D23*
X902208Y406908D02*
X851916Y406908D01*
X902208Y406908D02*
X914400Y419100D01*
X851916Y406908D02*
X850900Y406400D01*
X926592Y431292D02*
X926592Y495300D01*
X926592Y431292D02*
X914400Y419100D01*
X926592Y495300D02*
X927100Y495300D01*
X826008Y571500D02*
X826008Y586740D01*
X848868Y609600D01*
X848868Y716280D01*
X864108Y731520D01*
X864108Y746760D02*
X864108Y774192D01*
X864108Y746760D02*
X864108Y731520D01*
X864108Y774192D02*
X850900Y787400D01*
X826008Y571500D02*
X825500Y571500D01*
X914400Y711708D02*
X1295400Y711708D01*
X914400Y711708D02*
X879348Y746760D01*
X864108Y746760D01*
X1295400Y711708D02*
X1295400Y711200D01*
X754380Y571500D02*
X749300Y571500D01*
X754380Y571500D02*
X771144Y588264D01*
X783336Y588264D01*
X800100Y571500D01*
X783336Y588264D02*
X783336Y669036D01*
X850900Y736600D01*
X1295400Y541020D02*
X1295400Y381000D01*
D24*
X1295400Y541020D03*
D23*
X990600Y623316D02*
X976884Y623316D01*
X967740Y632460D01*
X873252Y632460D01*
X864108Y623316D01*
X990600Y623316D02*
X990600Y622300D01*
X864108Y623316D02*
X863600Y622300D01*
X1239012Y571500D02*
X1244600Y571500D01*
X1239012Y571500D02*
X1219200Y551688D01*
X952500Y551688D01*
X943356Y560832D01*
X943356Y600456D01*
X965200Y622300D01*
X838200Y622300D02*
X838200Y603504D01*
X815340Y580644D01*
X815340Y562356D01*
X842772Y534924D01*
X1179576Y534924D01*
X1219200Y495300D01*
X673608Y371856D02*
X673608Y330708D01*
X720852Y419100D02*
X780288Y478536D01*
X720852Y419100D02*
X673608Y371856D01*
X780288Y478536D02*
X807720Y478536D01*
X824484Y495300D01*
X673608Y330708D02*
X673100Y330200D01*
X824484Y495300D02*
X825500Y495300D01*
X1188720Y495300D02*
X1193800Y495300D01*
X1188720Y495300D02*
X1168908Y515112D01*
X926592Y515112D01*
X911352Y499872D01*
X911352Y484632D01*
X818388Y391668D01*
X748284Y391668D01*
X720852Y419100D01*
X1295400Y762000D02*
X1345692Y762000D01*
X1383792Y723900D01*
X1487424Y723900D01*
X1546860Y664464D01*
X1546860Y630936D01*
X1463040Y547116D01*
X1277112Y547116D01*
X1228344Y498348D01*
X1228344Y484632D01*
X1222248Y478536D01*
X1211580Y478536D01*
X1194816Y495300D01*
X1193800Y495300D01*
X1207008Y329184D02*
X1156716Y329184D01*
X1155700Y330200D01*
X914400Y330708D02*
X902208Y330708D01*
X914400Y330708D02*
X923544Y339852D01*
X1019556Y339852D01*
X1028700Y330708D01*
X902208Y330708D02*
X901700Y330200D01*
X1028700Y330200D02*
X1028700Y330708D01*
X1207008Y329184D02*
X1243584Y292608D01*
X1244600Y292100D01*
X1054608Y330708D02*
X1054608Y432816D01*
X1117092Y495300D01*
X1054608Y330708D02*
X1054100Y330200D01*
X1117092Y495300D02*
X1117600Y495300D01*
X1054608Y329184D02*
X1103376Y280416D01*
X1054608Y329184D02*
X1054100Y330200D01*
X1103376Y280416D02*
X1295400Y280416D01*
X1295400Y279400D01*
X841248Y330708D02*
X800100Y330708D01*
X841248Y330708D02*
X1002792Y492252D01*
X1002792Y495300D01*
X800100Y330708D02*
X800100Y330200D01*
X1002792Y495300D02*
X1003300Y495300D01*
X1136904Y495300D02*
X1143000Y495300D01*
X1136904Y495300D02*
X1120140Y512064D01*
X1021080Y512064D01*
X1004316Y495300D01*
X1003300Y495300D01*
X1143000Y419100D02*
X1244600Y317500D01*
X1143000Y419100D02*
X1143000Y495300D01*
X1333500Y900684D02*
X1371600Y900684D01*
X1333500Y900684D02*
X1295400Y862584D01*
X1371600Y900684D02*
X1371600Y901300D01*
X1295400Y863600D02*
X1295400Y862584D01*
X1269492Y851916D02*
X1371600Y851916D01*
X1269492Y851916D02*
X1245108Y876300D01*
X1371600Y851916D02*
X1371600Y851300D01*
X1245108Y876300D02*
X1244600Y876300D01*
X1325880Y711708D02*
X1371600Y711708D01*
X1325880Y711708D02*
X1301496Y736092D01*
X1295400Y736092D01*
X1371600Y711708D02*
X1371600Y711600D01*
X1295400Y736092D02*
X1295400Y736600D01*
X1306068Y153924D02*
X1383792Y153924D01*
X1306068Y153924D02*
X1245108Y214884D01*
X1383792Y153924D02*
X1384300Y152800D01*
X1245108Y214884D02*
X1244600Y215900D01*
X1319784Y204216D02*
X1383792Y204216D01*
X1319784Y204216D02*
X1295400Y228600D01*
X1383792Y204216D02*
X1384300Y202800D01*
X1309116Y355092D02*
X1295400Y355092D01*
X1295400Y355600D01*
X1319784Y356616D02*
X1383792Y356616D01*
X1319784Y356616D02*
X1309116Y367284D01*
X1245108Y367284D01*
X1383792Y356616D02*
X1384300Y355200D01*
X1245108Y367284D02*
X1244600Y368300D01*
X806196Y495300D02*
X800100Y495300D01*
X806196Y495300D02*
X822960Y512064D01*
X829056Y512064D01*
X841248Y499872D01*
X841248Y484632D01*
X847344Y478536D01*
X879348Y478536D01*
X891540Y490728D01*
X891540Y504444D01*
X915924Y528828D01*
X1117092Y528828D01*
D24*
X1117092Y528828D03*
D23*
X723900Y551688D02*
X723900Y495300D01*
X723900Y551688D02*
X739140Y566928D01*
X739140Y611124D01*
X780288Y652272D01*
X780288Y734568D01*
X845820Y800100D01*
X1092708Y800100D01*
X1104900Y787908D01*
X1104900Y787400D01*
X1115568Y775716D02*
X1243584Y775716D01*
X1115568Y775716D02*
X1104900Y786384D01*
X1243584Y775716D02*
X1244600Y774700D01*
X1104900Y786384D02*
X1104900Y787400D01*
X864108Y838200D02*
X752856Y726948D01*
X733044Y726948D01*
X723900Y736092D01*
X723900Y736600D01*
X864108Y838200D02*
X1295400Y838200D01*
X982980Y571500D02*
X977900Y571500D01*
X982980Y571500D02*
X1050036Y638556D01*
X1399032Y638556D01*
X1431036Y670560D01*
X1527048Y670560D01*
X1536192Y661416D01*
X1536700Y660400D01*
X928116Y571500D02*
X877824Y621792D01*
X1225296Y553212D02*
X1368552Y553212D01*
X1225296Y553212D02*
X1220724Y548640D01*
X950976Y548640D01*
X928116Y571500D01*
X927100Y571500D01*
D24*
X877824Y621792D03*
X1368552Y553212D03*
D23*
X958596Y571500D02*
X952500Y571500D01*
X958596Y571500D02*
X975360Y554736D01*
X1056132Y554736D01*
X1110996Y609600D01*
X1196340Y609600D01*
X1213104Y626364D01*
X1400556Y626364D01*
X1434084Y659892D01*
X1435100Y660400D01*
X800100Y406908D02*
X749808Y406908D01*
X737616Y419100D01*
X736600Y419100D01*
X812292Y406908D02*
X900684Y495300D01*
X812292Y406908D02*
X800100Y406908D01*
X900684Y495300D02*
X901700Y495300D01*
X800100Y406908D02*
X800100Y406400D01*
M02*
