G04 EAGLE Gerber RS-274X export*
G75*
%MOMM*%
%FSLAX34Y34*%
%LPD*%
%IN*%
%IPPOS*%
%AMOC8*
5,1,8,0,0,1.08239X$1,22.5*%
G01*
%ADD10C,0.254000*%


D10*
X596900Y812800D02*
X609600Y215900D01*
X787400Y63500D01*
X1524000Y63500D01*
X1561900Y126800D01*
X1561900Y914600D01*
X1489200Y974600D01*
X695200Y961900D01*
X596900Y812800D01*
X1375440Y596400D02*
X1375369Y595403D01*
X1375226Y594413D01*
X1375014Y593436D01*
X1374732Y592476D01*
X1374383Y591539D01*
X1373967Y590629D01*
X1373488Y589752D01*
X1372947Y588910D01*
X1372348Y588110D01*
X1371693Y587354D01*
X1370986Y586647D01*
X1370230Y585992D01*
X1369430Y585393D01*
X1368588Y584852D01*
X1367711Y584373D01*
X1366801Y583957D01*
X1365864Y583608D01*
X1364905Y583326D01*
X1363927Y583114D01*
X1362938Y582971D01*
X1361940Y582900D01*
X1360940Y582900D01*
X1359943Y582971D01*
X1358953Y583114D01*
X1357976Y583326D01*
X1357016Y583608D01*
X1356079Y583957D01*
X1355169Y584373D01*
X1354292Y584852D01*
X1353450Y585393D01*
X1352650Y585992D01*
X1351894Y586647D01*
X1351187Y587354D01*
X1350532Y588110D01*
X1349933Y588910D01*
X1349392Y589752D01*
X1348913Y590629D01*
X1348497Y591539D01*
X1348148Y592476D01*
X1347866Y593436D01*
X1347654Y594413D01*
X1347511Y595403D01*
X1347440Y596400D01*
X1347440Y597400D01*
X1347511Y598398D01*
X1347654Y599387D01*
X1347866Y600365D01*
X1348148Y601324D01*
X1348497Y602261D01*
X1348913Y603171D01*
X1349392Y604048D01*
X1349933Y604890D01*
X1350532Y605690D01*
X1351187Y606446D01*
X1351894Y607153D01*
X1352650Y607808D01*
X1353450Y608407D01*
X1354292Y608948D01*
X1355169Y609427D01*
X1356079Y609843D01*
X1357016Y610192D01*
X1357976Y610474D01*
X1358953Y610686D01*
X1359943Y610829D01*
X1360940Y610900D01*
X1361940Y610900D01*
X1362938Y610829D01*
X1363927Y610686D01*
X1364905Y610474D01*
X1365864Y610192D01*
X1366801Y609843D01*
X1367711Y609427D01*
X1368588Y608948D01*
X1369430Y608407D01*
X1370230Y607808D01*
X1370986Y607153D01*
X1371693Y606446D01*
X1372348Y605690D01*
X1372947Y604890D01*
X1373488Y604048D01*
X1373967Y603171D01*
X1374383Y602261D01*
X1374732Y601324D01*
X1375014Y600365D01*
X1375226Y599387D01*
X1375369Y598398D01*
X1375440Y597400D01*
X1375440Y596400D01*
X750600Y901200D02*
X750529Y900203D01*
X750386Y899213D01*
X750174Y898236D01*
X749892Y897276D01*
X749543Y896339D01*
X749127Y895429D01*
X748648Y894552D01*
X748107Y893710D01*
X747508Y892910D01*
X746853Y892154D01*
X746146Y891447D01*
X745390Y890792D01*
X744590Y890193D01*
X743748Y889652D01*
X742871Y889173D01*
X741961Y888757D01*
X741024Y888408D01*
X740065Y888126D01*
X739087Y887914D01*
X738098Y887771D01*
X737100Y887700D01*
X736100Y887700D01*
X735103Y887771D01*
X734113Y887914D01*
X733136Y888126D01*
X732176Y888408D01*
X731239Y888757D01*
X730329Y889173D01*
X729452Y889652D01*
X728610Y890193D01*
X727810Y890792D01*
X727054Y891447D01*
X726347Y892154D01*
X725692Y892910D01*
X725093Y893710D01*
X724552Y894552D01*
X724073Y895429D01*
X723657Y896339D01*
X723308Y897276D01*
X723026Y898236D01*
X722814Y899213D01*
X722671Y900203D01*
X722600Y901200D01*
X722600Y902200D01*
X722671Y903198D01*
X722814Y904187D01*
X723026Y905165D01*
X723308Y906124D01*
X723657Y907061D01*
X724073Y907971D01*
X724552Y908848D01*
X725093Y909690D01*
X725692Y910490D01*
X726347Y911246D01*
X727054Y911953D01*
X727810Y912608D01*
X728610Y913207D01*
X729452Y913748D01*
X730329Y914227D01*
X731239Y914643D01*
X732176Y914992D01*
X733136Y915274D01*
X734113Y915486D01*
X735103Y915629D01*
X736100Y915700D01*
X737100Y915700D01*
X738098Y915629D01*
X739087Y915486D01*
X740065Y915274D01*
X741024Y914992D01*
X741961Y914643D01*
X742871Y914227D01*
X743748Y913748D01*
X744590Y913207D01*
X745390Y912608D01*
X746146Y911953D01*
X746853Y911246D01*
X747508Y910490D01*
X748107Y909690D01*
X748648Y908848D01*
X749127Y907971D01*
X749543Y907061D01*
X749892Y906124D01*
X750174Y905165D01*
X750386Y904187D01*
X750529Y903198D01*
X750600Y902200D01*
X750600Y901200D01*
X763300Y151900D02*
X763229Y150903D01*
X763086Y149913D01*
X762874Y148936D01*
X762592Y147976D01*
X762243Y147039D01*
X761827Y146129D01*
X761348Y145252D01*
X760807Y144410D01*
X760208Y143610D01*
X759553Y142854D01*
X758846Y142147D01*
X758090Y141492D01*
X757290Y140893D01*
X756448Y140352D01*
X755571Y139873D01*
X754661Y139457D01*
X753724Y139108D01*
X752765Y138826D01*
X751787Y138614D01*
X750798Y138471D01*
X749800Y138400D01*
X748800Y138400D01*
X747803Y138471D01*
X746813Y138614D01*
X745836Y138826D01*
X744876Y139108D01*
X743939Y139457D01*
X743029Y139873D01*
X742152Y140352D01*
X741310Y140893D01*
X740510Y141492D01*
X739754Y142147D01*
X739047Y142854D01*
X738392Y143610D01*
X737793Y144410D01*
X737252Y145252D01*
X736773Y146129D01*
X736357Y147039D01*
X736008Y147976D01*
X735726Y148936D01*
X735514Y149913D01*
X735371Y150903D01*
X735300Y151900D01*
X735300Y152900D01*
X735371Y153898D01*
X735514Y154887D01*
X735726Y155865D01*
X736008Y156824D01*
X736357Y157761D01*
X736773Y158671D01*
X737252Y159548D01*
X737793Y160390D01*
X738392Y161190D01*
X739047Y161946D01*
X739754Y162653D01*
X740510Y163308D01*
X741310Y163907D01*
X742152Y164448D01*
X743029Y164927D01*
X743939Y165343D01*
X744876Y165692D01*
X745836Y165974D01*
X746813Y166186D01*
X747803Y166329D01*
X748800Y166400D01*
X749800Y166400D01*
X750798Y166329D01*
X751787Y166186D01*
X752765Y165974D01*
X753724Y165692D01*
X754661Y165343D01*
X755571Y164927D01*
X756448Y164448D01*
X757290Y163907D01*
X758090Y163308D01*
X758846Y162653D01*
X759553Y161946D01*
X760208Y161190D01*
X760807Y160390D01*
X761348Y159548D01*
X761827Y158671D01*
X762243Y157761D01*
X762592Y156824D01*
X762874Y155865D01*
X763086Y154887D01*
X763229Y153898D01*
X763300Y152900D01*
X763300Y151900D01*
X1487200Y901200D02*
X1487129Y900203D01*
X1486986Y899213D01*
X1486774Y898236D01*
X1486492Y897276D01*
X1486143Y896339D01*
X1485727Y895429D01*
X1485248Y894552D01*
X1484707Y893710D01*
X1484108Y892910D01*
X1483453Y892154D01*
X1482746Y891447D01*
X1481990Y890792D01*
X1481190Y890193D01*
X1480348Y889652D01*
X1479471Y889173D01*
X1478561Y888757D01*
X1477624Y888408D01*
X1476665Y888126D01*
X1475687Y887914D01*
X1474698Y887771D01*
X1473700Y887700D01*
X1472700Y887700D01*
X1471703Y887771D01*
X1470713Y887914D01*
X1469736Y888126D01*
X1468776Y888408D01*
X1467839Y888757D01*
X1466929Y889173D01*
X1466052Y889652D01*
X1465210Y890193D01*
X1464410Y890792D01*
X1463654Y891447D01*
X1462947Y892154D01*
X1462292Y892910D01*
X1461693Y893710D01*
X1461152Y894552D01*
X1460673Y895429D01*
X1460257Y896339D01*
X1459908Y897276D01*
X1459626Y898236D01*
X1459414Y899213D01*
X1459271Y900203D01*
X1459200Y901200D01*
X1459200Y902200D01*
X1459271Y903198D01*
X1459414Y904187D01*
X1459626Y905165D01*
X1459908Y906124D01*
X1460257Y907061D01*
X1460673Y907971D01*
X1461152Y908848D01*
X1461693Y909690D01*
X1462292Y910490D01*
X1462947Y911246D01*
X1463654Y911953D01*
X1464410Y912608D01*
X1465210Y913207D01*
X1466052Y913748D01*
X1466929Y914227D01*
X1467839Y914643D01*
X1468776Y914992D01*
X1469736Y915274D01*
X1470713Y915486D01*
X1471703Y915629D01*
X1472700Y915700D01*
X1473700Y915700D01*
X1474698Y915629D01*
X1475687Y915486D01*
X1476665Y915274D01*
X1477624Y914992D01*
X1478561Y914643D01*
X1479471Y914227D01*
X1480348Y913748D01*
X1481190Y913207D01*
X1481990Y912608D01*
X1482746Y911953D01*
X1483453Y911246D01*
X1484108Y910490D01*
X1484707Y909690D01*
X1485248Y908848D01*
X1485727Y907971D01*
X1486143Y907061D01*
X1486492Y906124D01*
X1486774Y905165D01*
X1486986Y904187D01*
X1487129Y903198D01*
X1487200Y902200D01*
X1487200Y901200D01*
X1512600Y164600D02*
X1512529Y163603D01*
X1512386Y162613D01*
X1512174Y161636D01*
X1511892Y160676D01*
X1511543Y159739D01*
X1511127Y158829D01*
X1510648Y157952D01*
X1510107Y157110D01*
X1509508Y156310D01*
X1508853Y155554D01*
X1508146Y154847D01*
X1507390Y154192D01*
X1506590Y153593D01*
X1505748Y153052D01*
X1504871Y152573D01*
X1503961Y152157D01*
X1503024Y151808D01*
X1502065Y151526D01*
X1501087Y151314D01*
X1500098Y151171D01*
X1499100Y151100D01*
X1498100Y151100D01*
X1497103Y151171D01*
X1496113Y151314D01*
X1495136Y151526D01*
X1494176Y151808D01*
X1493239Y152157D01*
X1492329Y152573D01*
X1491452Y153052D01*
X1490610Y153593D01*
X1489810Y154192D01*
X1489054Y154847D01*
X1488347Y155554D01*
X1487692Y156310D01*
X1487093Y157110D01*
X1486552Y157952D01*
X1486073Y158829D01*
X1485657Y159739D01*
X1485308Y160676D01*
X1485026Y161636D01*
X1484814Y162613D01*
X1484671Y163603D01*
X1484600Y164600D01*
X1484600Y165600D01*
X1484671Y166598D01*
X1484814Y167587D01*
X1485026Y168565D01*
X1485308Y169524D01*
X1485657Y170461D01*
X1486073Y171371D01*
X1486552Y172248D01*
X1487093Y173090D01*
X1487692Y173890D01*
X1488347Y174646D01*
X1489054Y175353D01*
X1489810Y176008D01*
X1490610Y176607D01*
X1491452Y177148D01*
X1492329Y177627D01*
X1493239Y178043D01*
X1494176Y178392D01*
X1495136Y178674D01*
X1496113Y178886D01*
X1497103Y179029D01*
X1498100Y179100D01*
X1499100Y179100D01*
X1500098Y179029D01*
X1501087Y178886D01*
X1502065Y178674D01*
X1503024Y178392D01*
X1503961Y178043D01*
X1504871Y177627D01*
X1505748Y177148D01*
X1506590Y176607D01*
X1507390Y176008D01*
X1508146Y175353D01*
X1508853Y174646D01*
X1509508Y173890D01*
X1510107Y173090D01*
X1510648Y172248D01*
X1511127Y171371D01*
X1511543Y170461D01*
X1511892Y169524D01*
X1512174Y168565D01*
X1512386Y167587D01*
X1512529Y166598D01*
X1512600Y165600D01*
X1512600Y164600D01*
M02*
