M48
;GenerationSoftware,Autodesk,EAGLE,9.4.2*%
;CreationDate,2020-05-23T11:20:30Z*%
FMAT,2
ICI,OFF
METRIC,TZ,000.000
T9C0.350
T8C0.610
T7C0.813
T6C1.000
T5C1.016
T4C1.100
T3C1.194
T2C1.200
T1C2.800
%
G90
M71
T1
X136144Y59690
X147320Y90170
X149860Y16510
X73660Y90170
X74930Y15240
T2
X124460Y80010
X129540Y81280
X124460Y82550
X129540Y83820
X124460Y85090
X129540Y30480
X124460Y29210
X124460Y31750
X129540Y86360
X129540Y78740
X124460Y77470
X129540Y76200
X124460Y74930
X129540Y73660
X124460Y87630
X129540Y88900
X124460Y72390
X129540Y71120
X129540Y33020
X124460Y34290
X129540Y35560
X129540Y27940
X124460Y26670
X129540Y25400
X124460Y24130
X129540Y22860
X124460Y36830
X129540Y38100
X124460Y21590
X129540Y20320
T3
X144780Y57110
X144780Y52110
X137160Y85130
X137160Y90130
X138430Y30520
X138430Y35520
X138430Y15280
X138430Y20280
X137160Y71160
X137160Y76160
T4
X133731Y43688
X138303Y43688
X136017Y43688
T5
X153670Y66040
X151130Y66040
X148590Y66040
X146050Y66040
X143510Y66040
X153670Y63500
X151130Y63500
X148590Y63500
X146050Y63500
X143510Y63500
X76200Y25400
X78740Y25400
X120650Y66040
X81280Y25400
X83820Y25400
X123190Y66040
X125730Y66040
X128270Y66040
T6
X150570Y45430
X144070Y45430
X150570Y40930
X144070Y40930
T7
X122936Y60960
X121920Y49530
X73660Y36830
X73660Y41910
X91440Y36830
X91440Y41910
X114046Y24130
X112014Y24130
X120904Y60960
X69850Y49530
X72390Y49530
X74930Y49530
X77470Y49530
X80010Y49530
X82550Y49530
X85090Y49530
X87630Y49530
X90170Y49530
X92710Y49530
X95250Y49530
X97790Y49530
X100330Y49530
X102870Y49530
X102870Y57150
X100330Y57150
X97790Y57150
X85090Y78740
X62230Y78740
X72390Y78740
X86360Y62230
X96520Y62230
X73660Y62230
X83820Y62230
X77470Y33020
X67310Y33020
X90170Y33020
X80010Y33020
X102870Y33020
X92710Y33020
X115570Y33020
X105410Y33020
X100330Y73660
X110490Y73660
X87630Y73660
X97790Y73660
X99060Y62230
X109220Y62230
X74930Y73660
X85090Y73660
X62230Y73660
X72390Y73660
X100330Y78740
X110490Y78740
X69850Y57150
X72390Y57150
X74930Y57150
X109220Y49530
X111760Y49530
X124460Y49530
X124460Y57150
X114300Y49530
X116840Y49530
X95250Y57150
X119380Y49530
X121920Y57150
X119380Y57150
X116840Y57150
X114300Y57150
X111760Y57150
X109220Y57150
X77470Y57150
X80010Y57150
X82550Y57150
X85090Y57150
X87630Y57150
X90170Y57150
X92710Y57150
X87630Y78740
X97790Y78740
X74930Y78740
T8
X85090Y40640
X80010Y40640
T9
X99365Y76810
X136855Y55321
X87782Y62179
X83363Y52883
X111709Y52883
X129540Y54102
M30